<mxfile host="www.draw.io" modified="2020-03-13T05:56:13.279Z" agent="Mozilla/5.0 (Windows NT 10.0; Win64; x64) AppleWebKit/537.36 (KHTML, like Gecko) Chrome/80.0.3987.122 Safari/537.36" etag="GSwunvzVef2d9MdY5b_U" version="12.8.4" type="github">
  <diagram id="a45cf8ec-cd66-6f27-3ac3-be6e809c9e4a" name="Page-1">
    <mxGraphModel dx="4332" dy="2899" grid="0" gridSize="10" guides="1" tooltips="1" connect="1" arrows="1" fold="1" page="1" pageScale="1" pageWidth="1654" pageHeight="2336" background="#ffffff" math="0" shadow="0">
      <root>
        <mxCell id="0" />
        <mxCell id="1" parent="0" />
        <mxCell id="1rMpu8wwRIu6vrEjWTJT-186" value="接&lt;br&gt;口&lt;br&gt;网&lt;br style=&quot;font-size: 16px&quot;&gt;关" style="rounded=0;whiteSpace=wrap;html=1;strokeColor=#10739e;fillColor=#b1ddf0;gradientColor=none;opacity=50;" vertex="1" parent="1">
          <mxGeometry x="-3171" y="-706" width="31" height="146.02" as="geometry" />
        </mxCell>
        <mxCell id="1rMpu8wwRIu6vrEjWTJT-193" value="NACOS注册中心" style="rounded=0;whiteSpace=wrap;html=1;dashed=1;strokeColor=#ae4132;fillColor=#fad9d5;fontSize=14;" vertex="1" parent="1">
          <mxGeometry x="-2998" y="-912" width="120" height="60" as="geometry" />
        </mxCell>
        <mxCell id="1rMpu8wwRIu6vrEjWTJT-194" value="NACOS配置中心" style="rounded=0;whiteSpace=wrap;html=1;dashed=1;strokeColor=#23445d;fillColor=#bac8d3;fontSize=14;" vertex="1" parent="1">
          <mxGeometry x="-2851" y="-912" width="120" height="60" as="geometry" />
        </mxCell>
        <mxCell id="1rMpu8wwRIu6vrEjWTJT-198" style="edgeStyle=orthogonalEdgeStyle;rounded=0;orthogonalLoop=1;jettySize=auto;html=1;exitX=0.75;exitY=0;exitDx=0;exitDy=0;fontSize=14;" edge="1" parent="1" source="1rMpu8wwRIu6vrEjWTJT-187" target="1rMpu8wwRIu6vrEjWTJT-194">
          <mxGeometry relative="1" as="geometry" />
        </mxCell>
        <mxCell id="1rMpu8wwRIu6vrEjWTJT-199" style="edgeStyle=orthogonalEdgeStyle;rounded=0;orthogonalLoop=1;jettySize=auto;html=1;exitX=0.5;exitY=0;exitDx=0;exitDy=0;entryX=0.5;entryY=1;entryDx=0;entryDy=0;fontSize=14;" edge="1" parent="1" source="1rMpu8wwRIu6vrEjWTJT-188" target="1rMpu8wwRIu6vrEjWTJT-193">
          <mxGeometry relative="1" as="geometry" />
        </mxCell>
        <mxCell id="1rMpu8wwRIu6vrEjWTJT-201" value="MYSQL" style="aspect=fixed;perimeter=ellipsePerimeter;html=1;align=center;shadow=0;dashed=0;spacingTop=3;image;image=img/lib/active_directory/databases.svg;strokeColor=#000000;fillColor=#ffffff;gradientColor=none;fontSize=14;" vertex="1" parent="1">
          <mxGeometry x="-2624" y="-629" width="50" height="49" as="geometry" />
        </mxCell>
        <mxCell id="1rMpu8wwRIu6vrEjWTJT-216" value="" style="shape=singleArrow;whiteSpace=wrap;html=1;strokeColor=#000000;fillColor=#ffffff;gradientColor=none;fontSize=14;" vertex="1" parent="1">
          <mxGeometry x="-3271" y="-652.49" width="100" height="39" as="geometry" />
        </mxCell>
        <mxCell id="1rMpu8wwRIu6vrEjWTJT-221" value="" style="shape=flexArrow;endArrow=classic;html=1;fontSize=14;fontColor=#FF3333;exitX=1;exitY=0.5;exitDx=0;exitDy=0;" edge="1" parent="1" source="1rMpu8wwRIu6vrEjWTJT-186" target="1rMpu8wwRIu6vrEjWTJT-187">
          <mxGeometry width="50" height="50" relative="1" as="geometry">
            <mxPoint x="-3111" y="-601" as="sourcePoint" />
            <mxPoint x="-3061" y="-651" as="targetPoint" />
          </mxGeometry>
        </mxCell>
        <mxCell id="1rMpu8wwRIu6vrEjWTJT-223" value="分发请求与鉴权" style="text;html=1;strokeColor=none;fillColor=none;align=center;verticalAlign=middle;whiteSpace=wrap;rounded=0;fontSize=14;fontColor=#000000;" vertex="1" parent="1">
          <mxGeometry x="-3135" y="-661.9999999999999" width="103" height="20" as="geometry" />
        </mxCell>
        <mxCell id="1rMpu8wwRIu6vrEjWTJT-224" value="服务注册" style="text;html=1;strokeColor=none;fillColor=none;align=center;verticalAlign=middle;whiteSpace=wrap;rounded=0;fontSize=14;fontColor=#000000;" vertex="1" parent="1">
          <mxGeometry x="-2998" y="-814" width="40" height="20" as="geometry" />
        </mxCell>
        <mxCell id="1rMpu8wwRIu6vrEjWTJT-225" value="配置管理" style="text;html=1;strokeColor=none;fillColor=none;align=center;verticalAlign=middle;whiteSpace=wrap;rounded=0;fontSize=14;fontColor=#000000;" vertex="1" parent="1">
          <mxGeometry x="-2786" y="-833" width="69" height="33" as="geometry" />
        </mxCell>
        <mxCell id="1rMpu8wwRIu6vrEjWTJT-228" value="" style="group" vertex="1" connectable="0" parent="1">
          <mxGeometry x="-3018" y="-777" width="292" height="286" as="geometry" />
        </mxCell>
        <mxCell id="1rMpu8wwRIu6vrEjWTJT-187" value="" style="rounded=0;whiteSpace=wrap;html=1;strokeColor=#b46504;fillColor=#fad7ac;opacity=50;dashed=1;" vertex="1" parent="1rMpu8wwRIu6vrEjWTJT-228">
          <mxGeometry x="2" y="11" width="280" height="261" as="geometry" />
        </mxCell>
        <mxCell id="1rMpu8wwRIu6vrEjWTJT-188" value="业务服务" style="text;html=1;strokeColor=none;fillColor=none;align=center;verticalAlign=middle;whiteSpace=wrap;rounded=0;opacity=50;fontStyle=1;fontSize=14;" vertex="1" parent="1rMpu8wwRIu6vrEjWTJT-228">
          <mxGeometry x="7.489865470852128" y="17.997487437185896" width="87.17488789237669" height="44.321608040201006" as="geometry" />
        </mxCell>
        <mxCell id="1rMpu8wwRIu6vrEjWTJT-190" value="系统服务" style="rounded=0;whiteSpace=wrap;html=1;dashed=1;fontSize=14;" vertex="1" parent="1rMpu8wwRIu6vrEjWTJT-228">
          <mxGeometry x="15.38000000000011" y="71" width="80.4" height="45.93" as="geometry" />
        </mxCell>
        <mxCell id="1rMpu8wwRIu6vrEjWTJT-191" value="监控服务" style="rounded=0;whiteSpace=wrap;html=1;dashed=1;fontSize=14;" vertex="1" parent="1rMpu8wwRIu6vrEjWTJT-228">
          <mxGeometry x="16.5" y="141" width="78.16" height="47.52" as="geometry" />
        </mxCell>
        <mxCell id="1rMpu8wwRIu6vrEjWTJT-192" value="资源服务" style="rounded=0;whiteSpace=wrap;html=1;dashed=1;fontSize=14;" vertex="1" parent="1rMpu8wwRIu6vrEjWTJT-228">
          <mxGeometry x="15.38000000000011" y="213" width="78.62" height="45" as="geometry" />
        </mxCell>
        <mxCell id="1rMpu8wwRIu6vrEjWTJT-215" value="服务之间通过Fegiin通信" style="text;html=1;strokeColor=none;fillColor=none;align=left;verticalAlign=top;whiteSpace=wrap;rounded=0;dashed=1;fontSize=14;fontStyle=0;fontColor=#FF3333;" vertex="1" parent="1rMpu8wwRIu6vrEjWTJT-228">
          <mxGeometry x="133" y="84.98000000000002" width="91" height="41.18" as="geometry" />
        </mxCell>
        <mxCell id="1rMpu8wwRIu6vrEjWTJT-227" value="服务无状态，可以动态扩展" style="text;html=1;strokeColor=none;fillColor=none;align=left;verticalAlign=top;whiteSpace=wrap;rounded=0;fontSize=14;fontColor=#000000;" vertex="1" parent="1rMpu8wwRIu6vrEjWTJT-228">
          <mxGeometry x="142" y="152.88" width="125" height="39.24" as="geometry" />
        </mxCell>
        <mxCell id="1rMpu8wwRIu6vrEjWTJT-234" value="" style="group" vertex="1" connectable="0" parent="1">
          <mxGeometry x="-2969" y="-457" width="194" height="76" as="geometry" />
        </mxCell>
        <mxCell id="1rMpu8wwRIu6vrEjWTJT-232" value="" style="rounded=0;whiteSpace=wrap;html=1;strokeColor=#666666;fillColor=#f5f5f5;fontSize=14;align=left;gradientColor=none;" vertex="1" parent="1rMpu8wwRIu6vrEjWTJT-234">
          <mxGeometry width="194" height="76" as="geometry" />
        </mxCell>
        <mxCell id="1rMpu8wwRIu6vrEjWTJT-229" value="" style="aspect=fixed;perimeter=ellipsePerimeter;html=1;align=center;shadow=0;dashed=0;spacingTop=3;image;image=img/lib/active_directory/documents.svg;strokeColor=#000000;fillColor=#ffffff;gradientColor=none;fontSize=14;fontColor=#000000;" vertex="1" parent="1rMpu8wwRIu6vrEjWTJT-234">
          <mxGeometry x="71" y="10" width="33" height="50" as="geometry" />
        </mxCell>
        <mxCell id="1rMpu8wwRIu6vrEjWTJT-231" value="" style="aspect=fixed;perimeter=ellipsePerimeter;html=1;align=center;shadow=0;dashed=0;spacingTop=3;image;image=img/lib/active_directory/sql_server.svg;strokeColor=#000000;fillColor=#ffffff;gradientColor=none;fontSize=14;fontColor=#000000;" vertex="1" parent="1rMpu8wwRIu6vrEjWTJT-234">
          <mxGeometry x="132" y="13" width="38.5" height="50" as="geometry" />
        </mxCell>
        <mxCell id="1rMpu8wwRIu6vrEjWTJT-233" value="日志收集" style="text;html=1;strokeColor=none;fillColor=none;align=center;verticalAlign=middle;whiteSpace=wrap;rounded=0;fontSize=14;fontColor=#000000;" vertex="1" parent="1rMpu8wwRIu6vrEjWTJT-234">
          <mxGeometry y="5" width="68" height="20" as="geometry" />
        </mxCell>
        <mxCell id="1rMpu8wwRIu6vrEjWTJT-235" style="edgeStyle=orthogonalEdgeStyle;rounded=0;orthogonalLoop=1;jettySize=auto;html=1;exitX=0.5;exitY=1;exitDx=0;exitDy=0;fontSize=14;fontColor=#000000;" edge="1" parent="1" source="1rMpu8wwRIu6vrEjWTJT-187">
          <mxGeometry relative="1" as="geometry">
            <mxPoint x="-2876" y="-454.60003662109375" as="targetPoint" />
          </mxGeometry>
        </mxCell>
        <mxCell id="1rMpu8wwRIu6vrEjWTJT-236" value="Redis缓存" style="aspect=fixed;html=1;points=[];align=center;image;fontSize=12;image=img/lib/mscae/Cache_Redis_Product.svg;strokeColor=#000000;fillColor=#ffffff;gradientColor=none;" vertex="1" parent="1">
          <mxGeometry x="-2624" y="-722" width="50" height="42" as="geometry" />
        </mxCell>
        <mxCell id="1rMpu8wwRIu6vrEjWTJT-237" style="edgeStyle=orthogonalEdgeStyle;rounded=0;orthogonalLoop=1;jettySize=auto;html=1;exitX=1;exitY=0.25;exitDx=0;exitDy=0;fontSize=14;fontColor=#000000;" edge="1" parent="1" source="1rMpu8wwRIu6vrEjWTJT-187" target="1rMpu8wwRIu6vrEjWTJT-236">
          <mxGeometry relative="1" as="geometry" />
        </mxCell>
        <mxCell id="1rMpu8wwRIu6vrEjWTJT-238" style="edgeStyle=orthogonalEdgeStyle;rounded=0;orthogonalLoop=1;jettySize=auto;html=1;entryX=0;entryY=0.5;entryDx=0;entryDy=0;fontSize=14;fontColor=#000000;" edge="1" parent="1" target="1rMpu8wwRIu6vrEjWTJT-201">
          <mxGeometry relative="1" as="geometry">
            <mxPoint x="-2732" y="-604" as="sourcePoint" />
          </mxGeometry>
        </mxCell>
      </root>
    </mxGraphModel>
  </diagram>
</mxfile>
